<?xml version="1.0" encoding="utf-8"?>
<!-- Generator: Adobe Illustrator 15.0.0, SVG Export Plug-In . SVG Version: 6.00 Build 0)  -->
<!DOCTYPE svg PUBLIC "-//W3C//DTD SVG 1.1//EN" "http://www.w3.org/Graphics/SVG/1.1/DTD/svg11.dtd">
<svg version="1.1" id="Layer_1" xmlns="http://www.w3.org/2000/svg" xmlns:xlink="http://www.w3.org/1999/xlink" x="0px" y="0px"
	 width="350.34px" height="138.432px" viewBox="0 0 350.34 138.432" enable-background="new 0 0 350.34 138.432"
	 xml:space="preserve">
<g>
	<path fill="#808083" d="M13.457,45.765c0,0,1.73-11.34,14.785-16.882l32.34-13.925c0,0,19.966-7.928,22.817-14.958
		c0,0-1.064,11.603-13.41,17.804L27.084,35.933C27.084,35.933,18.266,38.301,13.457,45.765"/>
	<path fill="#808083" d="M10.947,58.976c0,0,1.73-11.341,14.785-16.882l32.34-13.924c0,0,19.313-6.249,22.164-13.28
		c0,0-0.412,9.924-12.757,16.126L24.574,49.144C24.574,49.144,15.757,51.513,10.947,58.976"/>
	<path fill="#EB2240" d="M64.99,34.822c0,0-0.036,5.761-24.551,14.129l-17.897,7.567c0,0-26.369,8.313-17.702,37.812l9.283,24.2
		c0,0,6.39,11.198,4.229,19.902c0,0,16.088-14.908,7.398-31.514l-6.647-15.837c0,0-7.185-11.707,7.4-17.262l15.534-6.033
		C42.037,67.786,63.21,63.968,64.99,34.822"/>
	<path fill="#808083" d="M27.17,77.857c0,0-5.468,2.573-3.23,8.817l8.801,20.873c0,0,2.911,7.068,1.275,13.167
		c0,0,6.995-10.562,1.188-23.163L27.17,77.857z"/>
	<path fill="#808083" d="M38.045,73.567c0,0-5.467,2.571-3.229,8.816l8.8,20.874c0,0,2.911,7.066,1.276,13.168
		c0,0,6.995-10.563,1.188-23.164L38.045,73.567z"/>
	<polygon fill="#EB2240" points="105.101,57.586 105.101,69.228 125.489,69.228 125.489,77.408 105.101,77.408 105.101,93.457 
		94.904,93.457 94.904,49.406 128.195,49.406 128.195,57.586 	"/>
	<path fill="#EB2240" d="M130.148,49.407c0-3.086,2.453-5.476,6.102-5.476c3.651,0,6.105,2.265,6.105,5.286
		c0,3.272-2.454,5.664-6.105,5.664C132.601,54.88,130.148,52.489,130.148,49.407 M131.343,59.601h9.817v33.857h-9.817V59.601z"/>
	<path fill="#EB2240" d="M181.811,74.073v19.384h-9.816V75.585c0-5.476-2.516-7.994-6.859-7.994c-4.719,0-8.118,2.894-8.118,9.126
		v16.74h-9.816V59.601h9.376v3.964c2.644-2.895,6.607-4.468,11.202-4.468C175.771,59.096,181.811,63.754,181.811,74.073"/>
	<path fill="#EB2240" d="M184.331,90.311l3.272-7.05c3.022,1.953,7.615,3.274,11.768,3.274c4.532,0,6.23-1.196,6.23-3.085
		c0-5.538-20.452,0.127-20.452-13.405c0-6.417,5.79-10.949,15.669-10.949c4.658,0,9.816,1.071,13.028,2.958l-3.273,6.985
		c-3.335-1.889-6.67-2.517-9.755-2.517c-4.403,0-6.292,1.385-6.292,3.146c0,5.789,20.452,0.188,20.452,13.531
		c0,6.291-5.853,10.761-15.984,10.761C193.268,93.961,187.477,92.387,184.331,90.311"/>
	<path fill="#EB2240" d="M250.911,79.297h-25.613c0.944,4.216,4.532,6.798,9.692,6.798c3.586,0,6.166-1.072,8.495-3.274l5.223,5.664
		c-3.147,3.588-7.866,5.476-13.97,5.476c-11.706,0-19.319-7.365-19.319-17.434c0-10.13,7.739-17.43,18.061-17.43
		c9.942,0,17.62,6.672,17.62,17.557C251.1,77.408,250.973,78.479,250.911,79.297 M225.172,73.571h16.678
		c-0.693-4.279-3.901-7.049-8.309-7.049C229.074,66.522,225.865,69.228,225.172,73.571"/>
	<path fill="#EB2240" d="M270.215,59.814c-2.661,0.788-4.788,2.215-6.276,4.256v-4.469h-9.374v33.857h9.812V77.477
		c0-6.49,3.585-9.443,9.007-9.443c0.115,0,0.223,0,0.329,0.009L270.215,59.814z"/>
	<polygon fill="#EB2240" points="312.205,59.6 297.921,93.457 287.791,93.457 273.568,59.6 283.7,59.6 293.075,82.632 302.767,59.6 
			"/>
	<path fill="#EB2240" d="M346.126,79.297h-25.611c0.943,4.216,4.531,6.798,9.69,6.798c3.586,0,6.167-1.072,8.496-3.274l5.223,5.664
		c-3.146,3.588-7.866,5.476-13.971,5.476c-11.705,0-19.318-7.365-19.318-17.434c0-10.13,7.739-17.43,18.061-17.43
		c9.941,0,17.62,6.672,17.62,17.557C346.315,77.408,346.189,78.479,346.126,79.297 M320.387,73.571h16.679
		c-0.693-4.279-3.902-7.049-8.309-7.049C324.289,66.522,321.08,69.228,320.387,73.571"/>
</g>
</svg>
